<svg width="200" height="79" fill="none" xmlns="http://www.w3.org/2000/svg"><path d="m14 78 22-34L23 5 1 39l13 39Z" fill="#C7FFBD"/><path d="M194 20h1v-3h1-3 1v3Zm3-2 1 1 1-1v2-3l-1 1-1-1h-1v3h1v-2ZM62 33c-6-2-11-4-11-9 0-4 5-6 8-6 5 0 9 2 12 4l1 1 8-11v-1c-6-4-14-7-21-7-13 0-25 8-25 21 0 15 10 19 20 22 6 2 11 3 11 8s-6 7-10 7c-9 0-15-6-17-8l-9 12c7 6 14 9 20 10l7 1c7 0 14-2 18-6 6-4 8-10 8-17 0-15-10-18-20-21Zm118 6c-5-2-8-3-8-6 0-2 3-4 5-4 4 0 7 2 10 5l9-11h-1c-5-4-11-7-18-7-10 0-21 6-21 18 0 13 10 16 17 18 5 2 8 3 8 6s-5 4-7 4c-4 0-7-1-10-4v-1l-6 7-9-47h-14l-5 24-6-30h-14L99 76h16l4-21 3 21h15l4-21 3 21h16v-3c4 2 10 3 15 3 13 0 22-7 22-19 0-13-10-16-17-18ZM99 17v59H82v-9c2-4 3-9 3-13 0-5-1-9-3-12V17h17Zm4-3 5-1-2-2-3 1-1-1 6-4c-1-2-3-3-5-3a5 5 0 0 0 0 10Zm0-7h1l-3 2a2 2 0 0 1 1-2h1Zm-14 7h3V8l1-1 1 1v6h3V7a3 3 0 0 0-3-3 4 4 0 0 0-3 1V1h-2v13Zm-4 0h-3V4h-3V1h9v3h-3v10Z" fill="#fff"/><path d="m36 44-1 1-10 3 2-5 9 1Z" fill="#76FF83"/><path d="m35 45-3 6-10 6 3-9 10-3Z" fill="#C7FFBD"/><path d="m14 78 8-21 10-6-18 27ZM29 23l2 6-5 5-1-7 4-4Z" fill="#ACFB57"/><path d="m26 34 1 8v1l-9-2 8-7Z" fill="#35BA2A"/><path d="m23 5 6 18-4 4-2-22Z" fill="#76FF83"/><path d="m13 65 1 13-4-11 2-2h1Z" fill="#ACFB57"/><path d="m25 48-3 9-1 1-8 7-1-1-1-11 14-5Z" fill="#258402"/><path d="m11 53 2 12h-1l-2 2-4-12v-1l5-1Z" fill="#35BA2A"/><path d="m22 57-8 21-1-13 9-8Z" fill="#134401"/><path d="m10 40 1 13-5 2-5-16 9 1ZM31 29l5 15-9-1-1-9 5-5Z" fill="#4E801A"/><path d="m27 43-2 5-14 5-1-13 8 1 9 2Z" fill="#ACFB57"/><path d="m3 35 1 1 8-3h1L23 5 3 35Z" fill="#35BA2A"/><path d="M13 33 3 35l-2 4 9 1 3-7Z" fill="#134401"/><path d="M23 5 13 33l12-6-2-22Z" fill="#C7FFBD"/><path d="m25 27-12 6-3 7 8 1 8-7-1-7Z" fill="#F6F7F5"/></svg>